<svg width="20" height="20" viewBox="0 0 20 20" fill="none" xmlns="http://www.w3.org/2000/svg">
<path d="M18.6921 8.82494L11.1837 1.31661C10.5587 0.691607 9.45872 0.683273 8.82539 1.31661L1.32539 8.81661C0.675391 9.46661 0.675391 10.5166 1.32539 11.1666L8.82539 18.6666C9.15039 18.9916 9.57539 19.1499 10.0004 19.1499C10.4254 19.1499 10.8504 18.9916 11.1754 18.6666L18.6671 11.1749C19.3254 10.5416 19.3337 9.49161 18.6921 8.82494ZM10.0087 17.4916L2.50872 9.99161L10.0087 2.49161L17.5087 9.99161L10.0087 17.4916ZM6.66706 9.16661V11.6666C6.66706 12.1268 7.04015 12.4999 7.50039 12.4999C7.96063 12.4999 8.33372 12.1268 8.33372 11.6666V9.99994H11.6671V11.1176C11.6671 11.4739 12.0979 11.6524 12.3499 11.4004L14.3009 9.44945C14.4571 9.29324 14.4571 9.03997 14.3009 8.88376L12.3499 6.93278C12.0979 6.6808 11.6671 6.85926 11.6671 7.21563V8.33327H7.50039C7.04206 8.33327 6.66706 8.70827 6.66706 9.16661Z" fill="#34255C"/>
</svg>
