<svg width="16" height="16" viewBox="0 0 16 16" fill="none" xmlns="http://www.w3.org/2000/svg">
<path d="M10.3535 9.42002C10.2915 9.35753 10.2178 9.30793 10.1366 9.27409C10.0553 9.24024 9.9682 9.22282 9.88019 9.22282C9.79218 9.22282 9.70505 9.24024 9.62381 9.27409C9.54257 9.30793 9.46883 9.35753 9.40686 9.42002C9.28269 9.54492 9.213 9.71389 9.213 9.89002C9.213 10.0661 9.28269 10.2351 9.40686 10.36L13.5269 14.48C13.5888 14.5425 13.6626 14.5921 13.7438 14.6259C13.825 14.6598 13.9122 14.6772 14.0002 14.6772C14.0882 14.6772 14.1753 14.6598 14.2566 14.6259C14.3378 14.5921 14.4115 14.5425 14.4735 14.48C14.5977 14.3551 14.6674 14.1861 14.6674 14.01C14.6674 13.8339 14.5977 13.6649 14.4735 13.54L10.3535 9.42002ZM11.1735 7.76002C11.7038 7.75955 12.2121 7.54853 12.5869 7.17335L14.4735 5.28668C14.5977 5.16177 14.6674 4.99281 14.6674 4.81668C14.6674 4.64056 14.5977 4.47159 14.4735 4.34668C14.4115 4.2842 14.3378 4.2346 14.2566 4.20076C14.1753 4.16691 14.0882 4.14948 14.0002 4.14948C13.9122 4.14948 13.825 4.16691 13.7438 4.20076C13.6626 4.2346 13.5888 4.2842 13.5269 4.34668L11.6402 6.23335C11.5153 6.35752 11.3463 6.42721 11.1702 6.42721C10.9941 6.42721 10.8251 6.35752 10.7002 6.23335L13.0602 3.87335C13.1844 3.74844 13.2541 3.57947 13.2541 3.40335C13.2541 3.22723 13.1844 3.05826 13.0602 2.93335C12.9982 2.87086 12.9245 2.82127 12.8432 2.78742C12.762 2.75358 12.6749 2.73615 12.5869 2.73615C12.4989 2.73615 12.4117 2.75358 12.3305 2.78742C12.2492 2.82127 12.1755 2.87086 12.1135 2.93335L9.76019 5.28668C9.63602 5.16177 9.56633 4.99281 9.56633 4.81668C9.56633 4.64056 9.63602 4.47159 9.76019 4.34668L11.6402 2.46002C11.71 2.40025 11.7667 2.32671 11.8067 2.244C11.8467 2.16129 11.8692 2.0712 11.8727 1.97939C11.8763 1.88757 11.8608 1.79602 11.8273 1.71047C11.7938 1.62492 11.7429 1.54722 11.678 1.48225C11.613 1.41728 11.5353 1.36644 11.4497 1.33292C11.3642 1.29941 11.2726 1.28394 11.1808 1.28748C11.089 1.29103 10.9989 1.31352 10.9162 1.35353C10.8335 1.39355 10.76 1.45023 10.7002 1.52002L8.81353 3.40668C8.43899 3.78168 8.22862 4.29001 8.22862 4.82002C8.22862 5.35002 8.43899 5.85835 8.81353 6.23335L8.00019 7.06002L6.96019 6.03335C7.25536 5.50065 7.36698 4.88561 7.27781 4.28317C7.18865 3.68073 6.90367 3.12438 6.46686 2.70002C5.50686 1.74002 3.02019 0.666683 1.84686 1.86002C0.673525 3.05335 1.73352 5.51335 2.66686 6.48002C3.18808 7.0031 3.88885 7.3082 4.62686 7.33335H4.72019C5.17094 7.32694 5.61218 7.20284 6.00019 6.97335L7.04686 8.00002L1.52686 13.52C1.46514 13.5822 1.41626 13.6559 1.38303 13.7369C1.34979 13.818 1.33284 13.9048 1.33315 13.9924C1.33346 14.08 1.35102 14.1666 1.38483 14.2475C1.41864 14.3283 1.46803 14.4016 1.53019 14.4634C1.59235 14.5251 1.66606 14.5739 1.7471 14.6072C1.82815 14.6404 1.91495 14.6574 2.00255 14.6571C2.09014 14.6567 2.17682 14.6392 2.25763 14.6054C2.33844 14.5716 2.4118 14.5222 2.47352 14.46L8.47353 8.46002L9.75352 7.18002C9.9404 7.36538 10.162 7.51203 10.4057 7.61156C10.6494 7.71109 10.9103 7.76154 11.1735 7.76002ZM5.62019 5.62668C5.4953 5.75084 5.34624 5.84804 5.18226 5.91226C5.01827 5.97647 4.84285 6.00634 4.66686 6.00002C4.27713 5.98323 3.9091 5.81595 3.64019 5.53335C2.92019 4.81335 2.41352 3.18002 2.79352 2.80002C2.91974 2.7048 3.07569 2.65755 3.23352 2.66668C4.08439 2.7345 4.88975 3.07865 5.52686 3.64668C5.79904 3.8985 5.96136 4.24719 5.97882 4.61758C5.99628 4.98797 5.86748 5.35038 5.62019 5.62668Z" fill="#717171"/>
</svg>
