<svg width="16" height="16" viewBox="0 0 16 16" fill="none" xmlns="http://www.w3.org/2000/svg">
<path d="M8.00033 4.00004H8.00699M4.00033 1.33337H12.0003C12.7367 1.33337 13.3337 1.93033 13.3337 2.66671V13.3334C13.3337 14.0698 12.7367 14.6667 12.0003 14.6667H4.00033C3.26395 14.6667 2.66699 14.0698 2.66699 13.3334V2.66671C2.66699 1.93033 3.26395 1.33337 4.00033 1.33337ZM10.667 9.33337C10.667 10.8061 9.47308 12 8.00033 12C6.52757 12 5.33366 10.8061 5.33366 9.33337C5.33366 7.86061 6.52757 6.66671 8.00033 6.66671C9.47308 6.66671 10.667 7.86061 10.667 9.33337Z" stroke="#717171" stroke-width="1.5" stroke-linecap="round" stroke-linejoin="round"/>
</svg>
