<svg width="104" height="88" viewBox="0 0 104 88" fill="none" xmlns="http://www.w3.org/2000/svg">
<path fill-rule="evenodd" clip-rule="evenodd" d="M50.4975 0.73806C50.6025 0.98306 50.6549 1.3943 50.6549 1.9718C50.6549 3.52941 50.1299 6.50441 49.0799 10.8968C48.0475 15.2894 47.5312 17.8618 47.5312 18.6144C47.5312 18.8418 47.5399 19.1044 47.5575 19.4018C49.3249 19.4018 50.5762 19.2618 51.3112 18.9818C51.3112 17.7218 51.7925 14.9744 52.7549 10.7394C53.4375 10.3544 54.0062 10.1618 54.4612 10.1618C54.8286 10.1618 55.0125 10.3894 55.0125 10.8444C55.0125 11.2818 54.8112 12.3494 54.4086 14.0468C54.0236 15.7268 53.8312 16.8904 53.8312 17.5381C53.8312 18.1681 54.0062 18.6754 54.3562 19.0604C54.7062 19.4281 55.1699 19.6118 55.7475 19.6118C56.3425 19.6118 56.9899 19.4368 57.6899 19.0868C58.3899 18.7368 58.8712 18.4568 59.1336 18.2468C59.3962 18.0368 59.6062 17.8618 59.7636 17.7218L59.2912 16.8031L58.9762 16.9604C58.3812 17.2754 58.0136 17.4331 57.8736 17.4331C57.7336 17.4331 57.6636 17.1444 57.6636 16.5668C57.6636 15.9894 57.8649 14.9218 58.2675 13.3644C58.6699 11.7894 58.8712 10.6604 58.8712 9.97809C58.8712 9.27809 58.6962 8.71809 58.3462 8.29809C58.0136 7.87809 57.5149 7.66809 56.8499 7.66809C55.7825 7.66809 54.5399 8.18441 53.1225 9.21677C54.1025 5.05177 54.5925 2.3918 54.5925 1.2368C54.5925 0.589297 54.5136 0.186797 54.3562 0.0292969C53.1486 0.0292969 51.8625 0.26556 50.4975 0.73806ZM46.0343 0.94806L37.2667 0.659297C36.0943 0.659297 35.2106 0.764297 34.6156 0.974297C34.703 1.9893 34.948 2.7593 35.3506 3.28441C36.1206 2.8468 37.223 2.62806 38.658 2.62806H39.708C39.743 2.80306 39.7606 2.92556 39.7606 2.99556C39.7606 3.97545 39.2617 6.72309 38.2643 11.2381C37.2667 15.7531 36.768 18.4654 36.768 19.3754H36.9517C39.0693 19.3754 40.4693 19.2004 41.1517 18.8504C41.1693 17.1181 41.388 15.1668 41.808 12.9968C42.228 10.8268 42.6656 8.78809 43.1206 6.88045C43.5756 4.97309 43.838 3.62545 43.908 2.83806C46.3406 3.06545 47.5743 3.17941 47.6093 3.17941C47.9767 3.17941 48.2306 3.09177 48.3706 2.9168C48.5106 2.7418 48.5806 2.45306 48.5806 2.05056C48.5806 1.64806 48.5543 1.26306 48.5017 0.89556L46.0343 0.94806ZM60.5011 14.7554C60.5011 12.5681 61.1574 10.8444 62.4698 9.58441C63.7998 8.30677 65.3048 7.66809 66.9848 7.66809C68.0174 7.66809 68.8661 7.92177 69.5311 8.42941C70.1961 8.93677 70.5287 9.61941 70.5287 10.4768C70.5287 11.3168 70.3098 12.0254 69.8724 12.6031C69.4524 13.1804 68.9361 13.6268 68.3237 13.9418C67.0811 14.5544 65.9437 14.9394 64.9111 15.0968L64.2811 15.1754C64.4037 16.8204 65.0774 17.6431 66.3024 17.6431C66.7224 17.6431 67.1687 17.5381 67.6411 17.3281C68.1137 17.1181 68.4811 16.9081 68.7437 16.6981L69.1374 16.3831L69.7674 17.2231C69.6274 17.4154 69.3474 17.6694 68.9274 17.9844C68.5074 18.2994 68.1137 18.5618 67.7461 18.7718C66.7311 19.3318 65.6198 19.6118 64.4124 19.6118C63.2048 19.6118 62.2511 19.1831 61.5511 18.3254C60.8511 17.4681 60.5011 16.2781 60.5011 14.7554ZM64.2548 13.8894C65.1474 13.7318 65.8561 13.3554 66.3811 12.7604C66.9061 12.1654 67.1687 11.3954 67.1687 10.4504C67.1687 9.50545 66.8887 9.03309 66.3287 9.03309C65.6637 9.03309 65.1474 9.60177 64.7798 10.7394C64.4298 11.8594 64.2548 12.9094 64.2548 13.8894ZM13.0979 31.7285C15.1593 31.7285 16.8362 32.622 18.1284 34.4089C19.4209 36.1959 20.0668 38.4913 20.0668 41.295C20.0668 45.3312 19.0054 48.6433 16.8824 51.2313C14.79 53.7886 12.067 55.0671 8.71324 55.0671C7.17481 55.0671 4.59021 54.8206 0.959505 54.3276L1.42103 43.8368L0.867188 20.452L7.19018 19.2968L6.59019 31.2203V36.2113C6.92866 35.7185 7.34404 35.1946 7.83633 34.6402C8.32863 34.0855 9.09784 33.4692 10.1439 32.7916C11.19 32.083 12.1748 31.7285 13.0979 31.7285ZM11.2978 37.7364C9.88246 37.7364 8.31326 38.1679 6.59019 39.0306V43.0511L6.86711 49.8448C8.1594 49.9988 9.37476 50.0758 10.5132 50.0758C13.467 50.0758 14.944 48.027 14.944 43.9292C14.944 39.8009 13.7285 37.7364 11.2978 37.7364ZM28.2372 31.5437L27.6834 43.0511L28.191 53.9118L22.0064 55.0671L22.5602 43.8368L22.0526 32.699L28.2372 31.5437ZM44.305 39.123C44.6741 39.8317 44.8589 41.2488 44.8589 43.3748L44.305 55.298L50.5356 54.1428L50.028 43.0511L50.3049 37.875C50.3049 35.9957 49.828 34.517 48.8741 33.4384C47.9204 32.3294 46.7357 31.7747 45.3203 31.7747C43.9357 31.7747 42.6127 32.16 41.351 32.9302C40.0896 33.6697 39.1665 34.3473 38.5818 34.9636C37.9972 35.5491 37.4742 36.1497 37.0127 36.766C36.9203 35.0714 36.7666 33.3307 36.5513 31.5437L30.9667 32.7452C31.5205 36.0111 31.859 39.7082 31.982 43.8368L31.4281 55.0671L37.6128 53.9118L37.1051 43.0511V39.6774C38.828 38.5991 40.3666 38.0601 41.7204 38.0601C43.0742 38.0601 43.9357 38.4143 44.305 39.123ZM52.1711 59.6423C52.1711 56.931 54.6942 54.8052 59.7403 53.2647C58.5402 52.6484 57.9402 51.8473 57.9402 50.8614C57.9402 50.461 58.0942 50.0604 58.4019 49.66C58.7096 49.2593 59.1557 48.8435 59.7403 48.412V48.0424C57.525 48.0424 55.7556 47.4261 54.4326 46.1939C53.1404 44.9613 52.4942 43.3132 52.4942 41.2488C52.4942 38.5683 53.5865 36.2421 55.771 34.2703C57.9556 32.2678 60.5403 31.2665 63.5248 31.2665C64.2942 31.2665 65.417 31.4205 66.894 31.7285C68.371 32.0368 69.817 32.1908 71.2324 32.1908H74.7864L74.3247 36.2113L70.8633 35.7955C71.171 36.689 71.3248 37.7056 71.3248 38.8455C71.3248 39.9857 71.0478 41.1256 70.494 42.2654C69.971 43.3748 69.3247 44.2683 68.5556 44.9459C67.8172 45.6238 67.0632 46.2246 66.294 46.7482C65.5556 47.2413 64.9094 47.6882 64.3556 48.0886C63.8325 48.4582 63.571 48.7973 63.571 49.1053C63.571 49.6908 64.1864 50.199 65.417 50.6305C68.6788 51.9551 70.8787 53.0799 72.0172 54.0042C73.1862 54.9284 73.7708 56.0683 73.7708 57.4241C73.7708 59.7039 72.617 61.5678 70.3095 63.016C68.0325 64.4949 65.3095 65.2344 62.1402 65.2344C58.9712 65.2344 56.5097 64.7259 54.7558 63.7093C53.0326 62.6926 52.1711 61.3368 52.1711 59.6423ZM66.1095 40.2321C66.1095 38.7223 65.771 37.6132 65.0942 36.9046C64.4172 36.1959 63.3557 35.8417 61.9095 35.8417C59.1095 35.8417 57.7095 37.2283 57.7095 40.0011C57.7095 42.7431 59.2019 44.114 62.1864 44.114C64.8019 44.114 66.1095 42.8201 66.1095 40.2321ZM67.771 58.1171C67.771 57.5627 67.4787 57.0388 66.894 56.546C66.3094 56.0837 65.2633 55.5293 63.7555 54.8823C61.5096 55.4985 59.9556 56.0683 59.0941 56.5922C58.2633 57.1158 57.8481 57.7629 57.8481 58.5332C57.8481 59.3035 58.2633 59.9197 59.0941 60.3817C59.9556 60.8748 61.1403 61.1212 62.6479 61.1212C64.1556 61.1212 65.3865 60.844 66.3402 60.2893C67.2942 59.7347 67.771 59.0106 67.771 58.1171ZM28.8479 25.5559C28.8479 27.5977 27.1433 29.253 25.0405 29.253C22.9374 29.253 21.2328 27.5977 21.2328 25.5559C21.2328 23.5139 22.9374 21.8585 25.0405 21.8585C27.1433 21.8585 28.8479 23.5139 28.8479 25.5559ZM27.6834 24.6423C27.6834 25.2188 27.2021 25.6864 26.6082 25.6864C26.0143 25.6864 25.533 25.2188 25.533 24.6423C25.533 24.0657 26.0143 23.5984 26.6082 23.5984C27.2021 23.5984 27.6834 24.0657 27.6834 24.6423ZM79.6226 38.6974C81.9471 36.4325 84.7435 35.1842 87.5872 34.9339C86.0942 35.434 85.0218 36.8102 85.0218 38.4297C85.0218 40.4718 86.7264 42.1268 88.8295 42.1268C90.9323 42.1268 92.637 40.4718 92.637 38.4297C92.637 36.8629 91.6332 35.5236 90.2158 34.9854C92.8881 35.3248 95.5851 36.5487 97.9595 38.778C95.3756 41.2958 92.2097 42.5569 89.0432 42.5886C85.8408 42.6205 82.4957 41.3952 79.6226 38.6974ZM74.752 40.266C74.6195 40.1159 74.5095 39.9515 74.4221 39.7779C74.1074 39.1535 74.097 38.4241 74.3745 37.7986C74.4585 37.6091 74.5691 37.429 74.7055 37.2644C78.3004 32.7538 83.3054 30.3178 88.4927 30.266C93.6861 30.214 98.8698 32.5525 102.83 37.2098C102.963 37.3598 103.073 37.5242 103.16 37.6978C103.323 38.0223 103.405 38.3751 103.406 38.7271C103.408 39.0494 103.342 39.3736 103.208 39.6768C103.124 39.8667 103.013 40.0467 102.877 40.2114C99.2816 44.7219 94.2764 47.1579 89.0894 47.2097C83.8959 47.2615 78.7123 44.9232 74.752 40.266ZM99.2917 46.2353C96.5127 49.7381 92.7784 51.4861 89.0432 51.5234C85.313 51.5606 81.3894 49.8921 78.2433 46.1779C77.419 45.2046 75.9627 45.085 74.9908 45.9105C74.0186 46.7359 73.8991 48.1942 74.7237 49.1674C78.6876 53.8468 83.8836 56.1966 89.0894 56.1445C94.2904 56.0927 99.3085 53.6438 102.905 49.11C103.698 48.1107 103.532 46.6572 102.534 45.8634C101.536 45.0696 100.084 45.236 99.2917 46.2353ZM90.3972 38.5602C90.9911 38.5602 91.4725 38.0929 91.4725 37.5164C91.4725 36.9398 90.9911 36.4725 90.3972 36.4725C89.8034 36.4725 89.3221 36.9398 89.3221 37.5164C89.3221 38.0929 89.8034 38.5602 90.3972 38.5602ZM38.485 69.3073L29.7173 69.0186C28.545 69.0186 27.661 69.1236 27.066 69.3336C27.1536 70.3486 27.3986 71.1186 27.801 71.6436C28.571 71.2063 29.6736 70.9873 31.1086 70.9873H32.1586C32.1936 71.1626 32.211 71.2849 32.211 71.3549C32.211 72.3349 31.7123 75.0826 30.715 79.5973C29.7173 84.1123 29.2186 86.8249 29.2186 87.7349H29.4023C31.52 87.7349 32.92 87.5599 33.6023 87.2099C33.62 85.4773 33.8386 83.5263 34.2586 81.3562C34.6786 79.1862 35.116 77.1473 35.571 75.2399C36.026 73.3326 36.2886 71.9849 36.3586 71.1973C38.791 71.4249 40.025 71.5386 40.06 71.5386C40.4273 71.5386 40.681 71.4512 40.821 71.2763C40.961 71.1012 41.031 70.8126 41.031 70.4099C41.031 70.0073 41.005 69.6226 40.9523 69.2549L38.485 69.3073ZM39.0284 86.7113C39.7111 87.5512 40.6561 87.9713 41.8634 87.9713C43.4561 87.9713 44.7598 87.2973 45.7748 85.9499C46.7898 84.5849 47.4634 82.9836 47.7961 81.1462L48.3211 81.0413C48.8402 80.9393 49.3028 80.8298 49.7088 80.7131L49.5069 85.5036C49.5069 86.1862 49.6908 86.7723 50.0582 87.2623C50.4258 87.7349 50.9945 87.9713 51.7645 87.9713C52.9195 87.9713 54.1095 87.3586 55.3345 86.1336C55.4745 86.6763 55.7458 87.1223 56.1482 87.4723C56.5682 87.8049 57.0758 87.9713 57.6708 87.9713C58.8608 87.9713 60.0332 87.4373 61.1882 86.3699C62.3432 85.2849 63.2619 83.9723 63.9445 82.4323C64.6269 80.8923 64.9682 79.4313 64.9682 78.0486C64.9682 77.5063 64.7758 77.0336 64.3908 76.6312C64.0058 76.2286 63.4369 76.0273 62.6845 76.0273L62.3169 76.3686C62.0545 76.6136 61.7745 77.0426 61.4769 77.6549C61.1795 78.2673 60.9958 78.9499 60.9258 79.7026L62.7108 81.6973C62.6582 82.3626 62.2382 83.1936 61.4508 84.1912C60.6632 85.1712 59.9369 85.6612 59.2719 85.6612C58.9919 85.6612 58.8519 85.3199 58.8519 84.6373C58.8519 83.9373 59.0008 82.8263 59.2982 81.3036C59.5958 79.7636 59.7445 78.5649 59.7445 77.7073C59.7445 76.8326 59.6308 76.3163 59.4032 76.1586C58.3358 76.1586 57.1282 76.4123 55.7808 76.9199C55.8858 77.4099 55.9382 77.9963 55.9382 78.6786C55.9382 79.3613 55.8332 80.4549 55.6232 81.9599C55.4132 83.4649 55.2995 84.3573 55.2819 84.6373C54.6345 85.3199 54.0395 85.6612 53.4969 85.6612C53.1645 85.6612 52.9982 85.3199 52.9982 84.6373C52.9982 83.9373 53.1119 82.8873 53.3395 81.4873C53.5845 80.0699 53.7069 78.9849 53.7069 78.2323C53.7069 77.4623 53.5495 76.9023 53.2345 76.5526C52.9369 76.2023 52.5695 76.0273 52.1319 76.0273C51.7119 76.0273 51.2569 76.0536 50.7669 76.1062C50.5569 76.1413 50.3558 76.1762 50.1632 76.2113C49.9708 76.2462 49.7958 76.2812 49.6382 76.3162C49.4982 76.3512 49.3669 76.3862 49.2445 76.4212C49.1395 76.4386 49.0258 76.4649 48.9032 76.4999L48.8508 76.8149C49.4808 77.4449 49.7958 78.0573 49.7958 78.6526L49.7586 79.5312C49.1331 79.6505 48.5137 79.725 47.9011 79.7549C47.9011 77.1473 47.2098 75.8436 45.8271 75.8436C45.4598 75.8436 45.1271 75.9223 44.8298 76.0799L43.8848 76.0273C42.0471 76.0273 40.6034 76.7273 39.5534 78.1273C38.5211 79.5273 38.0048 81.1986 38.0048 83.1413C38.0048 84.6636 38.3461 85.8536 39.0284 86.7113ZM45.2498 84.2962C44.6721 85.2412 44.0161 85.7136 43.2811 85.7136C42.3184 85.7136 41.8371 84.7686 41.8371 82.8786C41.8371 81.5486 42.0298 80.3673 42.4148 79.3349C42.7998 78.3026 43.2111 77.6462 43.6484 77.3662C43.7011 77.3312 43.7798 77.3136 43.8848 77.3136C43.9898 77.3136 44.0771 77.3312 44.1471 77.3662L44.0161 77.6286C43.7884 78.1186 43.6748 78.6436 43.6748 79.2036C43.6748 80.6036 44.6111 81.3036 46.4834 81.3036C46.2561 82.3536 45.8448 83.3512 45.2498 84.2962ZM65.5201 87.7349H66.0188C67.6114 87.7349 68.7138 87.6126 69.3264 87.3673C69.3264 86.2299 69.6327 84.2873 70.2451 81.5399C70.5427 80.2626 70.7177 79.4749 70.7701 79.1773C71.5051 78.7399 72.1264 78.5212 72.6338 78.5212C72.9314 78.5212 73.0801 78.7573 73.0801 79.2299C73.0801 79.7023 72.8788 80.7612 72.4764 82.4062C72.0914 84.0512 71.8988 85.1799 71.8988 85.7926C71.8988 87.2449 72.5377 87.9713 73.8151 87.9713C74.3751 87.9713 75.0051 87.7962 75.7051 87.4463C76.4227 87.0786 76.9127 86.7899 77.1751 86.5799C77.4377 86.3699 77.6477 86.1949 77.8051 86.0549L77.3327 85.1362L77.0177 85.2936C76.3877 85.6263 76.0201 85.7926 75.9151 85.7926C75.7751 85.7926 75.7051 85.5213 75.7051 84.9786C75.7051 84.4186 75.9064 83.3336 76.3088 81.7236C76.7114 80.1136 76.9127 78.9849 76.9127 78.3373C76.9127 77.6726 76.7201 77.1213 76.3351 76.6836C75.9677 76.2463 75.4688 76.0273 74.8388 76.0273C73.7888 76.0273 72.5027 76.6136 70.9801 77.7862C70.9627 76.9986 70.8401 76.4563 70.6127 76.1586C68.5301 76.1586 67.0164 76.2899 66.0714 76.5526L66.0451 76.8936L66.2814 77.2086C66.7714 77.8563 67.0164 78.4686 67.0164 79.0462C67.0164 79.3613 66.7627 80.6823 66.2551 83.0099C65.7651 85.3373 65.5201 86.9126 65.5201 87.7349Z" fill="url(#paint0_linear_220_12)"/>
<defs>
<linearGradient id="paint0_linear_220_12" x1="23.6982" y1="89.3452" x2="85.1682" y2="-8.99258" gradientUnits="userSpaceOnUse">
<stop stop-color="#1A2A6C"/>
<stop offset="0.526042" stop-color="#B21F1F"/>
<stop offset="1" stop-color="#FDBB2D"/>
</linearGradient>
</defs>
</svg>
